<svg id="Facebook_Messenger_logo_2020" xmlns="http://www.w3.org/2000/svg" xmlns:xlink="http://www.w3.org/1999/xlink" width="57.925" height="57.927" viewBox="0 0 57.925 57.927">
  <defs>
    <radialGradient id="radial-gradient" cx="0.168" cy="1" r="1.1" gradientTransform="matrix(1, 0, 0, -1, 0, 2.022)" gradientUnits="objectBoundingBox">
      <stop offset="0" stop-color="#09f"/>
      <stop offset="0.6" stop-color="#a033ff"/>
      <stop offset="0.9" stop-color="#ff5280"/>
      <stop offset="1" stop-color="#ff7061"/>
    </radialGradient>
  </defs>
  <path id="Path_27847" data-name="Path 27847" d="M28.963,0C12.649,0,0,11.954,0,28.094A27.49,27.49,0,0,0,9.094,48.874a2.289,2.289,0,0,1,.775,1.651l.159,5.155a2.317,2.317,0,0,0,3.251,2.049L19.028,55.2a2.328,2.328,0,0,1,1.55-.116,31.682,31.682,0,0,0,8.385,1.115c16.313,0,28.963-11.954,28.963-28.094S45.276,0,28.963,0Z" fill="url(#radial-gradient)"/>
  <path id="Path_27848" data-name="Path 27848" d="M156.926,286.083l8.508-13.5a4.344,4.344,0,0,1,6.285-1.159l6.77,5.076a1.738,1.738,0,0,0,2.093-.007l9.138-6.937a1.378,1.378,0,0,1,2,1.832L183.2,284.881a4.345,4.345,0,0,1-6.285,1.159l-6.77-5.076a1.738,1.738,0,0,0-2.093.007l-9.138,6.937a1.372,1.372,0,0,1-1.991-1.825Z" transform="translate(-145.355 -249.771)" fill="#fff"/>
</svg>
