<svg xmlns="http://www.w3.org/2000/svg" width="21.788" height="23.447" viewBox="0 0 21.788 23.447">
  <path id="Path_5" data-name="Path 5" d="M141.895,31.5a12.79,12.79,0,0,1-6.242-1.484,10.718,10.718,0,0,1-4.221-4.131,11.409,11.409,0,0,1-1.522-5.9,13.251,13.251,0,0,1,.857-4.822,11.575,11.575,0,0,1,2.366-3.773,10.526,10.526,0,0,1,3.62-2.468,12.138,12.138,0,0,1,4.63-.87,10.155,10.155,0,0,1,4.131.844,10.539,10.539,0,0,1,3.325,2.328,10.143,10.143,0,0,1,2.149,3.492,12.112,12.112,0,0,1,.7,4.413v1.829H133.453l-.985-3.568h14.8l-.691.716v-.934a4.694,4.694,0,0,0-.844-2.328,5.257,5.257,0,0,0-1.855-1.573,5.423,5.423,0,0,0-2.558-.576,7.047,7.047,0,0,0-3.517.806,5.116,5.116,0,0,0-2.149,2.328,8.659,8.659,0,0,0-.729,3.773,7.674,7.674,0,0,0,.908,3.837,6.139,6.139,0,0,0,2.558,2.494,8.326,8.326,0,0,0,3.939.883,8.186,8.186,0,0,0,2.9-.512,10.232,10.232,0,0,0,2.852-1.842l2.558,3.632a11.614,11.614,0,0,1-2.622,1.8,15.181,15.181,0,0,1-3.082,1.177,12.7,12.7,0,0,1-3.044.422Z" transform="translate(-129.909 -8.06)"/>
</svg>
