<svg xmlns="http://www.w3.org/2000/svg" width="312.779" height="226.911" viewBox="0 0 312.779 226.911">
  <g id="Group_1" data-name="Group 1" transform="translate(0.538 0.5)">
    <path id="Path_1" data-name="Path 1" d="M106.489,38.575c-1.52,24.406-3.04,48.136-4.476,71.95L99.48,152.749c-.676,11.232-1.436,22.463-2.027,33.779a4.053,4.053,0,0,1-2.28,3.716L68.318,205.868a16.214,16.214,0,0,1-17.312,0c-8.867-5.151-17.734-10.387-26.6-15.454a4.476,4.476,0,0,1-2.449-4.222Q20.1,153.509,17.987,121c-1.182-20.268-2.449-40.451-3.631-60.719-.507-7.6-1.1-15.2-1.436-22.886a4.814,4.814,0,0,1,1.6-3.547c11.316-9.2,22.97-17.65,34.624-26.6a16.383,16.383,0,0,1,20.859,0Q86.6,19.912,103.28,32.579C105.729,34.268,107.333,36.042,106.489,38.575Z" transform="translate(96.29 -3.496)" fill="#080808" stroke="#707070" stroke-width="1"/>
    <path id="Path_2" data-name="Path 2" d="M25.425,178.159c-4.645-18.748-9.289-37.073-13.85-55.4-3.04-14.1-6.587-27.784-10.134-41.549A16.89,16.89,0,0,1,8.536,59.678l63-47.629,2.449-1.689c.591,4.9,1.1,9.543,1.6,14.187,3.125,27.868,6.165,55.736,9.289,83.52,1.013,9.036,1.942,18.156,2.956,27.192,0,2.533-.422,3.885-5.236,5.4a121.014,121.014,0,0,0-53.625,35.553A10.388,10.388,0,0,1,25.425,178.159Z" transform="translate(0.012 47.604)" fill="#080808" stroke="#707070" stroke-width="1"/>
    <path id="Path_3" data-name="Path 3" d="M88.823,178.159l13.765-55.4c3.462-13.85,6.756-27.784,10.3-41.549a16.89,16.89,0,0,0-7.263-21.534L42.883,12.049,40.35,10.36c-.507,4.9-1.013,9.543-1.6,14.187q-4.56,42.224-9.289,83.52c-.929,9.036-1.942,18.156-2.956,27.192,0,2.533.422,3.885,5.236,5.4a120.508,120.508,0,0,1,53.625,35.553,10.726,10.726,0,0,0,3.462,1.942Z" transform="translate(197.392 47.604)" fill="#080808" stroke="#707070" stroke-width="1"/>
  </g>
</svg>
