<svg id="odoo_logo_1_" data-name="odoo_logo (1)" xmlns="http://www.w3.org/2000/svg" width="138.687" height="45.607" viewBox="0 0 138.687 45.607">
  <path id="Path_27868" data-name="Path 27868" d="M392.875,195.607c-9.251,0-16.75-7.813-16.75-17.452s7.5-17.452,16.75-17.452,16.75,7.813,16.75,17.452-7.5,17.452-16.75,17.452Zm0-7.213a10.247,10.247,0,1,0-9.826-10.238A10.039,10.039,0,0,0,392.875,188.394Zm-35.062,7.213c-9.251,0-16.75-7.813-16.75-17.452s7.5-17.452,16.75-17.452,16.75,7.813,16.75,17.452S367.063,195.607,357.812,195.607Zm0-7.213a10.247,10.247,0,1,0-9.826-10.238A10.039,10.039,0,0,0,357.812,188.394ZM339.5,177.923c0,9.75-7.5,17.684-16.75,17.684S306,187.7,306,177.946s6.811-17.242,16.75-17.242a15.767,15.767,0,0,1,9.826,2.932V153.514a3.462,3.462,0,1,1,6.923,0Zm-16.75,10.471a10.247,10.247,0,1,0-9.826-10.238A10.039,10.039,0,0,0,322.75,188.394Z" transform="translate(-270.938 -150)" fill="#8f8f8f"/>
  <path id="Path_27869" data-name="Path 27869" d="M165.75,230.9c-9.251,0-16.75-7.813-16.75-17.452S156.5,196,165.75,196s16.75,7.813,16.75,17.452S175,230.9,165.75,230.9Zm0-7.213a10.247,10.247,0,1,0-9.826-10.238A10.039,10.039,0,0,0,165.75,223.69Z" transform="translate(-149 -185.296)" fill="#714b67"/>
</svg>
