<svg xmlns="http://www.w3.org/2000/svg" width="22.807" height="23.356" viewBox="0 0 22.807 23.356">
  <path id="Path_3" data-name="Path 3" d="M96.605,31.485a8.761,8.761,0,0,1-5.027-1.535,11.089,11.089,0,0,1-3.62-4.17,12.969,12.969,0,0,1-1.369-6.011,12.931,12.931,0,0,1,1.369-6.011,10.4,10.4,0,0,1,3.709-4.131,10.1,10.1,0,0,1,8.39-1.01,7.84,7.84,0,0,1,2.481,1.394,8.416,8.416,0,0,1,1.765,2.046,7.188,7.188,0,0,1,.959,2.468l-1.151-.294V8.6H109.4V31.063h-5.321V25.691l1.279-.217a6.472,6.472,0,0,1-1.087,2.238,8.211,8.211,0,0,1-1.957,1.919,10.232,10.232,0,0,1-2.558,1.279,8.953,8.953,0,0,1-3.146.576Zm1.458-4.643a5.858,5.858,0,0,0,3.236-.9,6.139,6.139,0,0,0,2.2-2.494,8.211,8.211,0,0,0,.78-3.684,7.981,7.981,0,0,0-.78-3.62,6.1,6.1,0,0,0-2.2-2.481,5.973,5.973,0,0,0-3.236-.9,5.858,5.858,0,0,0-3.223.9,5.986,5.986,0,0,0-2.149,2.481,8.147,8.147,0,0,0-.767,3.62,8.39,8.39,0,0,0,.767,3.684,6.024,6.024,0,0,0,2.1,2.494,5.756,5.756,0,0,0,3.274.9Z" transform="translate(-86.589 -8.13)"/>
</svg>
