<svg xmlns="http://www.w3.org/2000/svg" width="34.141" height="22.887" viewBox="0 0 34.141 22.887">
  <path id="Path_1" data-name="Path 1" d="M46.77,31.053V8.593h5.116l.128,4.477-.857.345a6.906,6.906,0,0,1,1.151-2.072A7.93,7.93,0,0,1,54.15,9.68,9.964,9.964,0,0,1,56.4,8.568a7.559,7.559,0,0,1,2.43-.4,8.633,8.633,0,0,1,3.261.576,5.717,5.717,0,0,1,2.392,1.8,8.275,8.275,0,0,1,1.42,3.159l-.806-.166.345-.691A6.088,6.088,0,0,1,66.723,11a10.628,10.628,0,0,1,1.919-1.484A8.787,8.787,0,0,1,70.879,8.5a8.672,8.672,0,0,1,2.328-.333,8.083,8.083,0,0,1,4.3,1.062,6.293,6.293,0,0,1,2.558,3.108,13.8,13.8,0,0,1,.844,5.116V31.014H75.624V17.84a7.674,7.674,0,0,0-.448-2.814,3.159,3.159,0,0,0-1.356-1.637,4.489,4.489,0,0,0-2.289-.537,5.653,5.653,0,0,0-2.021.358,4.745,4.745,0,0,0-1.637,1.023A4.847,4.847,0,0,0,66.8,15.756a4.477,4.477,0,0,0-.384,1.867v13.43H61.133V17.8a6.727,6.727,0,0,0-.473-2.712A3.594,3.594,0,0,0,59.3,13.428a3.939,3.939,0,0,0-2.174-.576,5.487,5.487,0,0,0-2.008.358,4.732,4.732,0,0,0-1.663,1.01A4.438,4.438,0,0,0,52,17.585V31.053Z" transform="translate(-46.77 -8.166)"/>
</svg>
