<svg xmlns="http://www.w3.org/2000/svg" width="23.371" height="23.309" viewBox="0 0 23.371 23.309">
  <path id="Path_10" data-name="Path 10" d="M212.119,31.474a11.856,11.856,0,0,1-6.011-1.509,11.153,11.153,0,0,1-4.182-4.106,11.741,11.741,0,0,1-1.535-6.011,11.78,11.78,0,0,1,1.535-6.011,11.242,11.242,0,0,1,4.182-4.157,11.984,11.984,0,0,1,6.011-1.509,11.856,11.856,0,0,1,5.96,1.509,11,11,0,0,1,4.157,4.157,11.9,11.9,0,0,1,1.522,6.011,11.869,11.869,0,0,1-1.522,6.011,10.91,10.91,0,0,1-4.157,4.157,11.729,11.729,0,0,1-5.96,1.458Zm0-4.643a5.819,5.819,0,0,0,3.261-.934,6.7,6.7,0,0,0,2.251-2.558,7.137,7.137,0,0,0,.793-3.581,7.252,7.252,0,0,0-.793-3.62,6.536,6.536,0,0,0-2.251-2.494,5.922,5.922,0,0,0-3.261-.921,6.05,6.05,0,0,0-3.3.921A6.241,6.241,0,0,0,206.53,16.2a7.865,7.865,0,0,0-.806,3.594,7.674,7.674,0,0,0,.806,3.581,6.5,6.5,0,0,0,2.315,2.481A5.947,5.947,0,0,0,212.119,26.831Z" transform="translate(-200.389 -8.169)"/>
</svg>
