<svg xmlns="http://www.w3.org/2000/svg" width="20.048" height="22.937" viewBox="0 0 20.048 22.937">
  <path id="Path_6" data-name="Path 6" d="M150.58,31.064V8.6H155.7l.09,4.6-.985.512a6.613,6.613,0,0,1,1.663-2.8A9.951,9.951,0,0,1,159.405,8.9a8.454,8.454,0,0,1,3.5-.767,8.365,8.365,0,0,1,4.285,1.023,6.306,6.306,0,0,1,2.558,3.07,13.225,13.225,0,0,1,.87,5.116V31.064h-5.244V17.724a7.584,7.584,0,0,0-.46-2.839,3.287,3.287,0,0,0-1.458-1.663,4.617,4.617,0,0,0-2.379-.486,5.9,5.9,0,0,0-2.11.358,4.975,4.975,0,0,0-2.737,2.545,4.3,4.3,0,0,0-.409,1.867V31.064h-5.231Z" transform="translate(-150.58 -8.127)"/>
</svg>
