<svg xmlns="http://www.w3.org/2000/svg" width="23.244" height="32.739" viewBox="0 0 23.244 32.739">
  <path id="Path_4" data-name="Path 4" d="M119.6,40.862a16.985,16.985,0,0,1-5.014-.767,12.1,12.1,0,0,1-4.054-2l1.88-3.837a10.232,10.232,0,0,0,2,1.1,12.689,12.689,0,0,0,4.86.985,8.876,8.876,0,0,0,3.837-.7,4.8,4.8,0,0,0,2.277-2.136,7.431,7.431,0,0,0,.767-3.556v-4.17l.767.294a5.116,5.116,0,0,1-1.394,2.558,8.8,8.8,0,0,1-2.9,1.931,9.043,9.043,0,0,1-3.581.755,10.628,10.628,0,0,1-5.653-1.5,10.961,10.961,0,0,1-3.837-4.067,12.176,12.176,0,0,1-1.432-5.947,12.458,12.458,0,0,1,1.407-5.986A10.543,10.543,0,0,1,121.348,8.4a9.158,9.158,0,0,1,2.187.857,10.539,10.539,0,0,1,1.816,1.279,7,7,0,0,1,1.279,1.445,3.914,3.914,0,0,1,.627,1.5l-1.1.333.077-5.193h5.116V29.53a12.982,12.982,0,0,1-.819,4.809,9.733,9.733,0,0,1-2.341,3.568,10.1,10.1,0,0,1-3.709,2.213,15.118,15.118,0,0,1-4.886.742Zm.2-14.069a6.4,6.4,0,0,0,3.389-.9,6.126,6.126,0,0,0,2.289-2.481,7.815,7.815,0,0,0,.806-3.62,7.9,7.9,0,0,0-.831-3.684,6.47,6.47,0,0,0-9.017-2.468A6.267,6.267,0,0,0,114.16,16.2a7.674,7.674,0,0,0-.831,3.645,7.674,7.674,0,0,0,.831,3.607,6.229,6.229,0,0,0,2.277,2.558,6.318,6.318,0,0,0,3.364.793Z" transform="translate(-108.108 -8.124)"/>
</svg>
