<svg xmlns="http://www.w3.org/2000/svg" width="50.925" height="75.324" viewBox="0 0 50.925 75.324">
  <g id="shopee-seeklogo" transform="translate(-9.611 -14.2)">
    <path id="Path_27849" data-name="Path 27849" d="M9.847,422.169a.536.536,0,0,1,.594-.891q.223.156.49.312a6.626,6.626,0,0,0,3.3,1.114,2.271,2.271,0,0,0,1.976-.966h0c.03-.045.059-.074.059-.1a2.9,2.9,0,0,0,.282-.624,1.886,1.886,0,0,0-.074-1.278,2.6,2.6,0,0,0-1.114-1.174h0a6.015,6.015,0,0,0-1.411-.594,5.722,5.722,0,0,1-3.075-1.738,2.687,2.687,0,0,1,0-3.09,2.983,2.983,0,0,1,2.511-1.411,6.58,6.58,0,0,1,3.417.787.532.532,0,0,1-.475.951,5.478,5.478,0,0,0-2.853-.669,1.932,1.932,0,0,0-1.649.862,1.7,1.7,0,0,0-.074,1.946,4.7,4.7,0,0,0,2.5,1.352,6.375,6.375,0,0,1,1.664.713h0a3.684,3.684,0,0,1,1.53,1.664,2.878,2.878,0,0,1,.119,1.991,3.66,3.66,0,0,1-.4.891.954.954,0,0,0-.089.149h0a3.288,3.288,0,0,1-2.867,1.426,7.648,7.648,0,0,1-3.848-1.263A5.742,5.742,0,0,0,9.847,422.169Z" transform="translate(0 -338.454)" fill="#ea501f"/>
    <path id="Path_27850" data-name="Path 27850" d="M75.1,412.305a.536.536,0,0,1,1.07,0v11.039a.536.536,0,0,1-1.07,0Z" transform="translate(-55.76 -338.529)" fill="#ea501f"/>
    <path id="Path_27851" data-name="Path 27851" d="M77.033,445.942a.538.538,0,0,1-.832-.683,5.507,5.507,0,0,1,2.645-1.872,3.4,3.4,0,0,1,1.842-.059,2.584,2.584,0,0,1,1.441,1,3.047,3.047,0,0,1,.535,1.813v3.952a.535.535,0,1,1-1.07,0v-3.952a2.064,2.064,0,0,0-.327-1.2,1.562,1.562,0,0,0-.847-.579,2.307,2.307,0,0,0-1.263.045A4.6,4.6,0,0,0,77.033,445.942Z" transform="translate(-56.593 -365.287)" fill="#ea501f"/>
    <path id="Path_27852" data-name="Path 27852" d="M134.5,443.2a3.682,3.682,0,0,1,2.615,1.085h0a3.7,3.7,0,1,1-5.23,5.23h0a3.694,3.694,0,0,1,0-5.23h0A3.708,3.708,0,0,1,134.5,443.2Zm1.872,1.827a2.654,2.654,0,0,0-3.744,0h0a2.654,2.654,0,0,0,0,3.744h0a2.647,2.647,0,0,0,3.744-3.744Z" transform="translate(-103.184 -365.264)" fill="#ea501f"/>
    <path id="Path_27853" data-name="Path 27853" d="M190.8,443.735a.535.535,0,1,1,1.07,0v.669a.9.9,0,0,1,.119-.119h0a3.694,3.694,0,0,1,5.23,0h0a3.7,3.7,0,1,1-5.23,5.23h0a.9.9,0,0,0-.119-.119v4.858a.535.535,0,1,1-1.07,0V443.735Zm5.66,1.293a2.654,2.654,0,0,0-3.744,0h0a2.654,2.654,0,0,0,0,3.744h0a2.647,2.647,0,0,0,3.744-3.744Z" transform="translate(-154.27 -365.264)" fill="#ea501f"/>
    <path id="Path_27854" data-name="Path 27854" d="M255.473,443.2a3.254,3.254,0,0,1,2.347.981,3.6,3.6,0,0,1,.891,1.545c.461,1.5-.416,1.441-.683,1.441h-4.918a4.739,4.739,0,0,0,.238.981,2.262,2.262,0,0,0,.832,1.04,2.566,2.566,0,0,0,1.4.357,5.435,5.435,0,0,0,2.065-.49.533.533,0,1,1,.416.981,6.815,6.815,0,0,1-2.466.565,3.449,3.449,0,0,1-1.976-.52,2.912,2.912,0,0,1-1.248-1.53,4.017,4.017,0,0,1,.758-4.368,3.172,3.172,0,0,1,2.347-.981Zm1.6,1.738a2.26,2.26,0,0,0-3.209,0,2.74,2.74,0,0,0-.7,1.144h4.62A3.114,3.114,0,0,0,257.077,444.938Z" transform="translate(-206.419 -365.264)" fill="#ea501f"/>
    <path id="Path_27855" data-name="Path 27855" d="M310.073,443.2a3.254,3.254,0,0,1,2.347.981,3.6,3.6,0,0,1,.891,1.545c.461,1.5-.416,1.441-.683,1.441h-4.918a4.738,4.738,0,0,0,.238.981,2.263,2.263,0,0,0,.832,1.04,2.566,2.566,0,0,0,1.4.357,5.435,5.435,0,0,0,2.065-.49.533.533,0,1,1,.416.981,6.815,6.815,0,0,1-2.466.565,3.449,3.449,0,0,1-1.976-.52,2.912,2.912,0,0,1-1.248-1.53,4.017,4.017,0,0,1,.758-4.368,3.172,3.172,0,0,1,2.347-.981Zm1.6,1.738a2.26,2.26,0,0,0-3.209,0,2.74,2.74,0,0,0-.7,1.144h4.62A3.113,3.113,0,0,0,311.677,444.938Z" transform="translate(-252.907 -365.264)" fill="#ea501f"/>
    <path id="Path_27856" data-name="Path 27856" d="M22.679,29.636H33.867a24.238,24.238,0,0,1,2.912-9.82c2.006-3.476,4.858-5.616,8.082-5.616s6.062,2.154,8.082,5.616a24.167,24.167,0,0,1,2.912,9.82H67.027a2.351,2.351,0,0,1,2.407,2.407l-2.243,31.3c-.282,3.922-2.749,6.166-6.329,6.166h-32c-3.982,0-6.091-2.778-6.329-6.166L20.273,32.058a2.372,2.372,0,0,1,2.407-2.422Zm13.98,0H53.032a21.144,21.144,0,0,0-2.526-8.424c-1.486-2.6-3.506-4.219-5.646-4.219s-4.16,1.619-5.675,4.234A21.311,21.311,0,0,0,36.66,29.636Z" transform="translate(-9.074)" fill="#ea501f"/>
    <path id="Path_27857" data-name="Path 27857" d="M128.252,184.885a1.133,1.133,0,1,1,1.278-1.872c.327.223.669.446,1.04.669a14.079,14.079,0,0,0,7.027,2.377,4.825,4.825,0,0,0,4.219-2.065h0c.059-.1.119-.163.134-.208a5.588,5.588,0,0,0,.594-1.337,4.017,4.017,0,0,0-.149-2.734,5.738,5.738,0,0,0-2.377-2.511h0a11.547,11.547,0,0,0-3-1.248c-3.061-.862-5.319-2.08-6.537-3.714-1.337-1.8-1.441-3.967-.015-6.6a6.407,6.407,0,0,1,5.363-3.016,14.014,14.014,0,0,1,7.28,1.664,1.136,1.136,0,0,1-1.04,2.021,11.675,11.675,0,0,0-6.076-1.426,4.187,4.187,0,0,0-3.521,1.827c-.951,1.738-.936,3.105-.163,4.145.891,1.2,2.749,2.139,5.334,2.867a14.71,14.71,0,0,1,3.566,1.5h0a7.906,7.906,0,0,1,3.283,3.551,6.294,6.294,0,0,1,.267,4.264,7.4,7.4,0,0,1-.847,1.9c-.089.134-.149.238-.193.312h0a7.041,7.041,0,0,1-6.091,3.061,16.242,16.242,0,0,1-8.216-2.7A13.248,13.248,0,0,1,128.252,184.885Z" transform="translate(-100.592 -126.353)" fill="#fff"/>
  </g>
</svg>
