<svg xmlns="http://www.w3.org/2000/svg" width="47.734" height="74.633" viewBox="0 0 47.734 74.633">
  <g id="Group_34383" data-name="Group 34383" transform="translate(-2038 -381.556)">
    <path id="Path_27861" data-name="Path 27861" d="M178.188,349.589c-.578-.305-.872-.578-.872-.937,0-.458.414-.752,1.057-.752a3.822,3.822,0,0,1,1.417.305l.523-1.6a3.339,3.339,0,0,0-1.9-.371c-1.973,0-3.347,1.134-3.347,2.725a2.518,2.518,0,0,0,1.493,2.082c.7.382.937.665.937,1.079s-.349.774-.992.774a4.457,4.457,0,0,1-1.853-.491L174.1,354a4.254,4.254,0,0,0,2.224.556c2.028,0,3.5-1,3.5-2.8A2.715,2.715,0,0,0,178.188,349.589Zm8.088-3.379a3.041,3.041,0,0,0-2.387,1.2l-.022-.011.872-4.535h-2.256l-2.2,11.555h2.256l.752-3.946c.294-1.493,1.068-2.42,1.788-2.42.512,0,.709.349.709.839a4.471,4.471,0,0,1-.1,1l-.85,4.524h2.256l.883-4.666a8.428,8.428,0,0,0,.164-1.483C188.129,346.973,187.464,346.21,186.276,346.21Zm6.966,0c-2.725,0-4.524,2.453-4.524,5.189a2.953,2.953,0,0,0,3.107,3.161c2.671,0,4.469-2.387,4.469-5.189A2.91,2.91,0,0,0,193.242,346.21Zm-1.112,6.628c-.774,0-1.09-.654-1.09-1.482,0-1.3.665-3.4,1.9-3.4.8,0,1.068.7,1.068,1.363C194,350.7,193.318,352.838,192.13,352.838Zm9.952-6.628a3.078,3.078,0,0,0-2.387,1.352h-.022l.131-1.21H197.8c-.1.818-.283,2.071-.458,3l-1.559,8.274h2.256l.632-3.347h.054a2.644,2.644,0,0,0,1.319.294c2.66,0,4.393-2.725,4.393-5.472C204.426,347.573,203.739,346.21,202.082,346.21Zm-2.158,6.649a1.423,1.423,0,0,1-.937-.338l.371-2.1c.262-1.417,1-2.344,1.788-2.344.7,0,.9.643.9,1.243C202.06,350.777,201.188,352.86,199.924,352.86Zm7.729-9.887a1.3,1.3,0,0,0-1.3,1.308,1.048,1.048,0,0,0,1.068,1.134h.022a1.267,1.267,0,0,0,1.319-1.308A1.059,1.059,0,0,0,207.652,342.973Zm-3.161,11.435h2.256l1.526-8.023h-2.267m8.023-.011h-1.57l.076-.371c.131-.774.589-1.45,1.352-1.45a2.244,2.244,0,0,1,.719.12l.436-1.777a2.931,2.931,0,0,0-1.232-.2,3.385,3.385,0,0,0-2.213.752,4.225,4.225,0,0,0-1.308,2.562l-.065.371h-1.057l-.338,1.711h1.057l-1.2,6.322h2.256l1.2-6.322H213.7Zm5.439.011s-1.417,3.565-2.038,5.516h-.022c-.044-.632-.556-5.516-.556-5.516h-2.376l1.363,7.347a.511.511,0,0,1-.055.371,3.847,3.847,0,0,1-1.232,1.363,5.058,5.058,0,0,1-1.286.643l.632,1.919a5.16,5.16,0,0,0,2.213-1.232,15.266,15.266,0,0,0,2.965-4.48l2.758-5.941h-2.365Z" transform="translate(1863.9 98.163)"/>
    <g id="Group_34382" data-name="Group 34382" transform="translate(2038 381.556)">
      <path id="Path_27858" data-name="Path 27858" d="M39.98,318.811a.453.453,0,0,0-.457-.4c-.183,0-4.172-.3-4.172-.3s-2.771-2.771-3.106-3.046a1.278,1.278,0,0,0-1.127-.152c-.03,0-.609.183-1.553.487-.944-2.711-2.558-5.178-5.452-5.178h-.274a3.541,3.541,0,0,0-2.68-1.523c-6.7,0-9.929,8.375-10.934,12.639-2.619.822-4.477,1.371-4.69,1.462-1.462.457-1.492.487-1.675,1.858C3.707,325.694-.1,355.145-.1,355.145l29.633,5.543,16.081-3.472C45.645,357.155,40.01,319.085,39.98,318.811Zm-12.06-2.985c-.731.213-1.614.487-2.5.792v-.548a11.7,11.7,0,0,0-.609-4.051c1.523.183,2.467,1.858,3.106,3.807Zm-4.964-3.472a12.758,12.758,0,0,1,.67,4.507v.3c-1.645.518-3.381,1.036-5.177,1.614C19.453,314.943,21.371,313.055,22.955,312.355Zm-1.949-1.888a1.455,1.455,0,0,1,.853.3c-2.162,1.005-4.447,3.533-5.391,8.649-1.431.457-2.8.853-4.112,1.279C13.453,316.8,16.194,310.466,21.006,310.466Z" transform="translate(0.1 -308.7)" fill="#95bf47"/>
      <path id="Path_27859" data-name="Path 27859" d="M107.4,332.333c-.183,0-4.172-.3-4.172-.3s-2.771-2.771-3.106-3.046a.59.59,0,0,0-.4-.183L97.5,374.666l16.081-3.472s-5.634-38.131-5.665-38.4A.824.824,0,0,0,107.4,332.333Z" transform="translate(-67.775 -322.678)" fill="#5e8e3e"/>
      <path id="Path_27860" data-name="Path 27860" d="M40.247,367.859,38.3,373.737a9.161,9.161,0,0,0-3.868-.944c-3.137,0-3.289,1.98-3.289,2.467,0,2.68,7,3.716,7,10.02,0,4.964-3.137,8.162-7.37,8.162a10.146,10.146,0,0,1-7.675-3.167l1.371-4.507s2.68,2.315,4.934,2.315a2,2,0,0,0,2.1-2.01c0-3.5-5.726-3.655-5.726-9.441,0-4.842,3.472-9.533,10.507-9.533A8.131,8.131,0,0,1,40.247,367.859Z" transform="translate(-16.034 -349.312)" fill="#fff"/>
    </g>
  </g>
</svg>
