<svg xmlns="http://www.w3.org/2000/svg" width="45.073" height="51.072" viewBox="0 0 45.073 51.072">
  <g id="Group_34384" data-name="Group 34384" transform="translate(-2063.661 -471.92)">
    <path id="Path_27863" data-name="Path 27863" d="M344.506,507.127v-2.073a15.452,15.452,0,0,0-10.954,27.98l-.214-.231a15.455,15.455,0,0,1,11.159-25.65Z" transform="translate(1736.72 -15.021)" fill="#25f4ee"/>
    <path id="Path_27864" data-name="Path 27864" d="M371.629,497.633v-2a11.613,11.613,0,0,1-6.363-1.893,11.913,11.913,0,0,0,6.363,3.905Zm-24.708,28.973a7.168,7.168,0,0,0,7.108-6.852V486.14h6.1v-.077a11.626,11.626,0,0,1-.2-2.133h-8.4v33.675a7.048,7.048,0,0,1-10.329,6,7.108,7.108,0,0,0,5.73,3.006Z" transform="translate(1734.673 -12.01)" fill="#25f4ee"/>
    <path id="Path_27865" data-name="Path 27865" d="M343.808,510.581a7.083,7.083,0,0,0-3.272,13.377,6.852,6.852,0,0,1-1.336-4.119,7.023,7.023,0,0,1,9.147-6.74v-8.564a15.479,15.479,0,0,0-2.081-.154h-.42V510.9a6.473,6.473,0,0,0-2.021-.291ZM364.6,494.1a11.279,11.279,0,0,1-2.878-7.665h-2.312a11.8,11.8,0,0,0,5.181,7.665Z" transform="translate(1735.319 -12.369)" fill="#fe2c55"/>
    <path id="Path_27866" data-name="Path 27866" d="M370.689,499.78h-.043v6.475a19.492,19.492,0,0,1-11.716-3.8v17.214a15.416,15.416,0,0,1-15.416,15.416,14.971,14.971,0,0,1-8.864-2.741,14.807,14.807,0,0,0,11.313,4.933,15.484,15.484,0,0,0,15.467-15.467V504.679a19.518,19.518,0,0,0,11.69,3.76v-8.4a11.9,11.9,0,0,1-2.449-.257Z" transform="translate(1735.613 -14.286)" fill="#fe2c55"/>
    <path id="Path_27867" data-name="Path 27867" d="M358.294,517.748V500.62a19.51,19.51,0,0,0,11.69,3.76v-6.526a11.4,11.4,0,0,1-6.363-3.768,11.254,11.254,0,0,1-5.139-7.665h-6.158V520.1a7.066,7.066,0,0,1-7.048,6.8,6.689,6.689,0,0,1-5.73-2.946,7.066,7.066,0,0,1,3.263-13.309,6.964,6.964,0,0,1,2.09.325v-6.586a15.416,15.416,0,0,0-10.954,25.993,15.031,15.031,0,0,0,8.864,2.792A15.484,15.484,0,0,0,358.277,517.7Z" transform="translate(1736.318 -12.368)"/>
  </g>
</svg>
