<svg xmlns="http://www.w3.org/2000/svg" width="57.925" height="57.925" viewBox="0 0 57.925 57.925">
  <g id="Icon_of_Zalo" transform="translate(-0.166)">
    <path id="Path_27839" data-name="Path 27839" d="M26.454.166h5.134c7.051,0,11.172,1.036,14.83,3A20.319,20.319,0,0,1,54.9,11.646c1.961,3.658,3,7.778,3,14.83v5.112c0,7.051-1.036,11.172-3,14.83A20.32,20.32,0,0,1,46.418,54.9c-3.658,1.961-7.778,3-14.83,3H26.476c-7.051,0-11.172-1.036-14.83-3a20.32,20.32,0,0,1-8.483-8.484c-1.961-3.658-3-7.778-3-14.83V26.476c0-7.051,1.036-11.172,3-14.83a20.32,20.32,0,0,1,8.483-8.484C15.282,1.2,19.425.166,26.454.166Z" transform="translate(0 0.027)" fill="#0068ff" fill-rule="evenodd"/>
    <path id="Path_27840" data-name="Path 27840" d="M56.743,26.474v.844c0,7.051-1.036,11.172-3,14.83a20.32,20.32,0,0,1-8.484,8.484c-3.658,1.961-7.778,3-14.83,3H25.321c-5.77,0-9.577-.693-12.775-2.02L7.275,46.179Z" transform="translate(1.154 4.298)" fill="#001a33" fill-rule="evenodd" opacity="0.12"/>
    <path id="Path_27841" data-name="Path 27841" d="M8.347,50.666a16.9,16.9,0,0,0,8.473-1.635c10.408,5.753,26.678,5.478,36.526-.824q.573-.859,1.07-1.786c1.968-3.671,3.008-7.807,3.008-14.884V26.406c0-7.077-1.039-11.213-3.008-14.884A20.393,20.393,0,0,0,45.9,3.008C42.23,1.039,38.095,0,31.018,0H25.865c-6.027,0-9.94.759-13.228,2.207q-.27.241-.529.491C2.464,12,1.731,32.15,9.909,43.1c.009.016.019.032.03.049C11.2,45,9.984,48.256,8.082,50.158,7.772,50.445,7.883,50.622,8.347,50.666Z" transform="translate(0.668)" fill="#fff" fill-rule="evenodd"/>
    <path id="Path_27842" data-name="Path 27842" d="M22.185,17h-11.3v2.424h7.844l-7.734,9.585a2.173,2.173,0,0,0-.419,1.432v.617H21.238a.978.978,0,0,0,.97-.97v-1.3H13.966l7.271-9.123c.11-.132.308-.375.4-.485l.044-.066a2.88,2.88,0,0,0,.507-1.785Z" transform="translate(1.69 2.76)" fill="#0068ff"/>
    <path id="Path_27843" data-name="Path 27843" d="M33.055,31.058h1.609V17H32.24V30.243A.813.813,0,0,0,33.055,31.058Z" transform="translate(5.207 2.76)" fill="#0068ff"/>
    <path id="Path_27844" data-name="Path 27844" d="M26.583,19.692A5.509,5.509,0,1,0,32.092,25.2,5.511,5.511,0,0,0,26.583,19.692Zm0,8.748A3.239,3.239,0,1,1,29.823,25.2,3.244,3.244,0,0,1,26.583,28.44Z" transform="translate(3.395 3.197)" fill="#0068ff"/>
    <path id="Path_27845" data-name="Path 27845" d="M41.262,19.616a5.553,5.553,0,1,0,5.553,5.553A5.558,5.558,0,0,0,41.262,19.616Zm0,8.836a3.261,3.261,0,1,1,3.261-3.261A3.254,3.254,0,0,1,41.262,28.452Z" transform="translate(5.771 3.185)" fill="#0068ff"/>
    <path id="Path_27846" data-name="Path 27846" d="M29.592,30.578h1.3V19.957h-2.27V29.63A.974.974,0,0,0,29.592,30.578Z" transform="translate(4.62 3.24)" fill="#0068ff"/>
  </g>
</svg>
